# xmcd
#
# Track frame offsets:
#	150
#	14032
#	27800
#	50137
#	73327
#	91075
#	108135
#	128242
#	144835
#	158230
#	163110
#
# Disc length: 2458 seconds
#
# Revision: 0
# Processed by: cddbd v1.5PL3 Copyright (c) Steve Scherf et al.
# Submitted via: dBpowerAMP V4.0
#
DISCID=9209980b
DTITLE=Verlon Thompson and Suzu Ragsdale - Anything Goes
DYEAR=1993
DGENRE=Country
TTITLE0=Anything Goes
TTITLE1=Falling Off The World
TTITLE2=Slow As Christmas
TTITLE3=If I'm Not Already Crazy
TTITLE4=Supply And Demand
TTITLE5=I Know Too Much
TTITLE6=Let's Not Act Like Grown-ups
TTITLE7=Something Up My Sleve
TTITLE8=Pay Attention
TTITLE9=Farther Along
TTITLE10=Where We're S'pose To Be
EXTD=
EXTT0=
EXTT1=
EXTT2=
EXTT3=
EXTT4=
EXTT5=
EXTT6=
EXTT7=
EXTT8=
EXTT9=
EXTT10=
PLAYORDER=
